<?xml version="1.0" standalone="no"?>
<!DOCTYPE svg PUBLIC "-//W3C//DTD SVG 20010904//EN"
 "http://www.w3.org/TR/2001/REC-SVG-20010904/DTD/svg10.dtd">
<svg version="1.0" xmlns="http://www.w3.org/2000/svg"
 width="846.000000pt" height="585.000000pt" viewBox="0 0 846.000000 585.000000"
 preserveAspectRatio="xMidYMid meet">

<g transform="translate(0.000000,585.000000) scale(0.100000,-0.100000)"
fill="#000000" stroke="none">
<path d="M3318 5406 c-31 -17 -38 -27 -38 -53 0 -17 -4 -34 -9 -37 -5 -3 -12
-30 -15 -59 -4 -30 -14 -76 -22 -102 -7 -27 -14 -63 -14 -82 0 -19 -4 -32 -9
-28 -13 7 -21 -8 -13 -22 8 -13 162 -29 427 -43 99 -6 194 -12 210 -14 17 -3
75 -7 130 -11 55 -3 190 -12 300 -20 465 -33 656 -45 752 -48 l101 -3 -16 21
c-10 12 -29 34 -44 51 -40 44 -97 109 -153 174 -55 64 -81 80 -126 80 -17 0
-67 7 -112 14 -114 21 -273 45 -332 51 -58 5 -135 17 -255 39 -47 9 -100 16
-117 16 -18 0 -33 4 -33 8 0 4 -19 9 -42 11 -47 2 -148 16 -223 31 -75 14
-102 18 -195 30 -47 6 -92 13 -100 14 -8 2 -32 -6 -52 -18z"/>
<path d="M5628 4853 c6 -2 18 -2 25 0 6 3 1 5 -13 5 -14 0 -19 -2 -12 -5z"/>
<path d="M6098 4823 c6 -2 18 -2 25 0 6 3 1 5 -13 5 -14 0 -19 -2 -12 -5z"/>
<path d="M6498 4793 c12 -2 32 -2 45 0 12 2 2 4 -23 4 -25 0 -35 -2 -22 -4z"/>
<path d="M6578 4793 c7 -3 16 -2 19 1 4 3 -2 6 -13 5 -11 0 -14 -3 -6 -6z"/>
<path d="M6963 4763 c15 -2 39 -2 55 0 15 2 2 4 -28 4 -30 0 -43 -2 -27 -4z"/>
<path d="M7408 4733 c12 -2 30 -2 40 0 9 3 -1 5 -23 4 -22 0 -30 -2 -17 -4z"/>
<path d="M7633 4723 c9 -2 25 -2 35 0 9 3 1 5 -18 5 -19 0 -27 -2 -17 -5z"/>
<path d="M2938 4643 c7 -3 16 -2 19 1 4 3 -2 6 -13 5 -11 0 -14 -3 -6 -6z"/>
<path d="M7676 4408 c-4 -24 -11 -198 -16 -388 -9 -367 -23 -818 -41 -1326 -8
-227 -8 -317 0 -332 6 -11 11 -40 11 -63 0 -23 6 -79 14 -123 8 -45 22 -135
31 -201 9 -66 22 -158 30 -205 8 -47 21 -139 30 -205 19 -144 41 -296 60 -425
8 -52 24 -160 36 -240 30 -197 40 -219 74 -167 14 21 43 247 60 457 2 30 9
111 15 180 5 69 12 154 15 190 3 36 7 83 10 105 3 22 7 81 10 130 3 50 10 117
15 150 6 33 17 146 25 250 9 105 17 201 19 215 3 14 9 84 15 155 7 72 16 175
21 230 5 55 14 154 20 220 31 375 41 489 50 570 59 562 74 754 60 770 -8 10
-31 15 -62 15 -27 0 -58 4 -68 10 -10 5 -63 15 -117 21 -54 6 -118 17 -143 24
-25 7 -73 16 -106 19 l-61 7 -7 -43z"/>
<path d="M2324 4395 c-4 -8 -3 -27 1 -43 8 -32 33 -180 46 -272 5 -36 13 -85
18 -110 5 -25 15 -76 21 -115 19 -121 31 -189 40 -225 4 -19 11 -64 15 -100 4
-36 10 -78 15 -95 12 -43 50 -254 52 -293 l2 -33 56 6 c30 3 98 10 150 15 131
12 275 28 402 46 59 7 126 14 150 15 24 1 54 4 68 8 40 12 57 2 91 -51 18 -27
37 -55 44 -61 6 -7 24 -32 39 -57 15 -25 45 -70 67 -100 21 -30 58 -82 81
-115 82 -119 103 -144 121 -145 11 0 17 8 18 23 1 21 1 21 7 2 7 -20 10 -20
107 -8 173 23 202 29 183 37 -27 12 -24 77 3 96 11 8 27 27 35 43 13 24 20 27
64 27 l50 0 0 -39 c0 -22 -5 -41 -12 -44 -7 -3 12 -3 43 0 36 4 59 2 63 -6 4
-6 33 -11 67 -11 38 0 59 -4 59 -11 0 -9 26 -10 95 -5 l95 6 0 -39 c0 -22 4
-42 9 -45 5 -3 12 -39 16 -78 4 -40 11 -93 16 -118 6 -24 14 -78 19 -119 l10
-74 -78 -75 c-61 -59 -84 -76 -112 -79 -59 -6 -77 -12 -77 -28 0 -8 10 -16 21
-16 16 -1 17 -2 4 -6 -11 -3 -15 -10 -11 -20 4 -11 2 -14 -8 -11 -8 3 -13 12
-13 20 2 17 -36 13 -48 -6 -5 -8 -8 -7 -8 1 0 7 14 19 31 26 l31 12 -31 34
-31 33 -20 -23 c-10 -13 -19 -32 -20 -41 0 -9 -5 -20 -10 -23 -6 -4 -8 -11 -5
-16 4 -5 -4 -9 -17 -9 -13 0 -28 -4 -34 -10 -5 -5 -37 -13 -71 -16 -61 -7 -61
-7 -94 31 l-33 37 -18 -24 c-9 -12 -18 -31 -18 -41 0 -9 -4 -25 -10 -35 -5 -9
-23 -51 -39 -92 -51 -132 -97 -243 -126 -305 -27 -59 -54 -208 -55 -302 0 -42
-1 -43 -32 -44 -18 0 -42 -2 -53 -3 -11 -2 -87 -8 -170 -15 -82 -7 -225 -19
-317 -27 -91 -8 -195 -14 -230 -14 -36 0 -89 -4 -119 -10 -30 -5 -133 -14
-229 -20 -96 -6 -205 -14 -241 -17 l-65 -5 -17 73 c-30 126 -36 150 -72 284
-19 72 -48 180 -64 240 -16 61 -32 117 -35 126 -4 9 5 32 24 57 l31 43 -21 29
c-24 34 -68 70 -84 70 -6 0 -23 -20 -38 -45 -15 -25 -32 -45 -38 -45 -13 0
-13 3 2 37 19 45 49 84 59 78 12 -8 11 2 -7 70 -9 33 -20 76 -24 95 -5 19 -23
89 -40 155 -32 117 -38 142 -79 315 -49 203 -69 265 -82 262 -8 -2 -18 -10
-22 -18 -5 -8 -11 -13 -15 -10 -4 2 -18 -11 -32 -30 -14 -18 -33 -34 -44 -34
-13 0 -16 -4 -9 -12 15 -20 36 -94 31 -109 -3 -8 1 -28 8 -46 8 -17 18 -49 22
-71 l9 -40 -36 -6 c-20 -3 -101 -8 -181 -11 -80 -3 -167 -8 -193 -11 l-48 -5
2 123 c2 105 0 127 -15 151 -13 19 -17 37 -12 60 4 23 3 28 -4 17 -8 -13 -10
-12 -10 3 0 15 -14 17 -148 17 -115 0 -153 -3 -168 -15 -10 -8 -25 -15 -32
-15 -16 0 -92 -79 -92 -96 0 -7 -4 -16 -10 -19 -5 -3 -10 -46 -10 -95 l0 -89
41 -42 40 -41 -23 -17 c-33 -23 -56 -37 -110 -63 -26 -13 -48 -29 -48 -36 0
-7 -4 -11 -8 -8 -5 3 -14 -18 -20 -46 -7 -28 -18 -64 -26 -82 -7 -17 -26 -71
-42 -121 -15 -49 -34 -102 -41 -116 -7 -15 -20 -57 -29 -95 -9 -38 -23 -85
-32 -104 -22 -48 -20 -139 6 -230 17 -61 21 -109 23 -251 2 -96 -1 -181 -6
-189 -5 -9 -4 -11 3 -6 7 4 12 4 12 -1 0 -12 -101 -98 -112 -95 -5 1 -7 -2 -3
-8 3 -5 -5 -15 -19 -22 -14 -6 -26 -14 -26 -18 0 -15 -132 -120 -142 -114 -7
4 -8 2 -4 -4 4 -7 -2 -33 -13 -58 -12 -26 -21 -55 -21 -66 0 -12 -4 -17 -12
-12 -8 5 -9 2 -5 -10 4 -10 7 -24 7 -32 0 -23 56 -44 117 -44 44 -1 54 -3 40
-11 -9 -5 -22 -7 -27 -4 -6 3 -10 2 -10 -4 0 -6 -11 -6 -31 -1 -22 7 -29 6
-26 -3 4 -13 107 -20 107 -8 0 14 65 8 83 -7 10 -9 17 -11 17 -4 0 6 6 10 13
8 33 -11 81 -15 68 -7 -8 5 -10 14 -6 21 6 9 13 6 26 -11 10 -13 20 -21 24
-18 7 8 -25 69 -45 86 -13 11 -13 14 0 24 13 9 12 10 -3 5 -9 -3 -17 -1 -17 4
0 5 -6 7 -13 4 -7 -2 -21 2 -32 11 -14 10 -15 13 -4 9 11 -3 18 2 23 18 5 19
8 20 16 8 8 -12 10 -11 10 6 0 19 90 104 110 104 4 0 10 9 13 21 3 12 10 18
16 14 6 -3 11 1 11 9 0 10 9 16 23 17 12 0 16 3 9 6 -13 5 75 90 89 86 10 -3
60 156 62 200 1 20 5 37 8 37 4 0 10 32 13 70 4 39 12 70 17 70 5 0 9 6 7 14
-2 8 -1 15 2 16 8 3 70 -35 70 -42 0 -5 7 -8 15 -8 8 0 15 -4 15 -9 0 -4 29
-26 65 -47 44 -25 64 -42 60 -52 -3 -9 0 -12 9 -9 9 4 42 -12 74 -33 l59 -40
1 -97 c0 -66 -2 -88 -8 -68 -6 23 -8 14 -9 -41 0 -39 -4 -111 -7 -160 l-7 -89
-221 0 c-360 0 -406 -4 -433 -31 -23 -24 -24 -25 -7 -60 11 -23 22 -33 31 -30
11 5 13 0 8 -17 -5 -17 -4 -19 4 -7 7 10 34 16 85 18 71 4 76 3 76 -16 0 -18
-7 -21 -57 -24 -48 -2 -58 -6 -57 -20 2 -20 -22 -25 -29 -5 -2 7 -8 8 -13 3
-5 -5 -3 -11 5 -14 7 -2 22 -13 32 -23 25 -25 39 -24 39 1 0 19 6 21 50 19 28
-2 50 -7 50 -13 0 -6 5 -3 11 7 8 14 18 17 36 12 19 -4 26 -1 30 15 7 27 63
29 63 2 0 -10 3 -22 8 -26 4 -4 7 -13 7 -19 0 -19 64 -21 71 -3 8 20 34 21 34
1 0 -14 49 -15 413 -15 325 1 427 4 478 16 35 8 84 19 109 25 25 5 77 9 115 8
39 -1 137 6 220 16 82 9 242 25 355 34 l205 16 -2 35 c-3 40 -19 101 -39 148
-16 38 -18 68 -4 77 6 3 36 -2 68 -13 31 -11 91 -30 132 -42 41 -12 79 -26 84
-30 5 -5 14 -6 21 -3 7 2 27 -3 44 -11 16 -9 41 -16 54 -16 12 0 28 -5 34 -11
7 -7 22 -13 35 -14 13 -2 55 -13 93 -24 39 -12 95 -29 125 -38 30 -8 71 -21
90 -28 88 -31 208 -65 231 -65 14 0 29 -4 35 -8 14 -13 121 -48 189 -63 33 -7
65 -15 70 -19 6 -4 51 -19 100 -34 50 -15 133 -40 185 -57 52 -16 100 -29 107
-29 15 0 98 -27 138 -45 17 -8 63 -21 103 -30 39 -9 74 -21 77 -26 4 -5 20 -9
36 -9 17 0 42 -6 57 -14 15 -8 46 -17 67 -21 22 -3 49 -11 60 -15 39 -18 178
-60 198 -60 20 0 209 34 287 51 65 15 254 49 330 59 36 5 91 16 123 24 32 9
71 16 87 16 16 0 49 4 72 10 139 32 178 39 223 45 28 3 64 10 80 15 38 11 144
24 168 21 9 -1 17 2 17 7 0 6 19 12 43 15 66 8 179 28 212 37 17 5 54 10 83
11 29 1 55 6 58 11 3 4 18 8 35 8 16 0 37 4 47 9 21 11 184 41 234 44 21 1 38
5 38 9 0 4 8 7 18 6 22 -3 108 11 150 24 30 9 33 13 27 37 -8 31 -11 48 -24
166 -6 50 -17 124 -25 165 -8 41 -20 120 -27 175 -6 55 -13 118 -16 140 -2 21
-6 42 -9 46 -4 7 -30 182 -44 294 -14 117 -32 241 -45 310 -13 64 -19 117 -46
349 -5 44 -12 82 -17 85 -4 3 -9 40 -11 81 -2 41 -9 93 -16 115 -7 22 -16 74
-19 115 -6 77 -14 130 -41 285 -8 50 -15 113 -15 142 0 28 -4 63 -10 77 -5 14
-14 65 -20 113 -6 48 -15 108 -20 133 -5 25 -12 72 -15 105 -9 102 -18 129
-45 137 -14 3 -70 14 -125 23 -55 9 -131 23 -170 31 -123 23 -249 45 -401 69
-50 8 -103 19 -117 24 -14 6 -60 13 -101 17 -42 4 -73 11 -70 15 3 5 -16 9
-43 9 -26 0 -65 5 -85 10 -20 6 -65 15 -100 20 -35 5 -85 14 -113 19 -52 11
-79 16 -143 26 -20 3 -75 12 -122 21 -47 8 -105 19 -130 23 -25 4 -72 13 -105
20 -163 31 -346 63 -395 70 -30 3 -59 9 -65 13 -5 3 -35 9 -65 12 -56 6 -170
26 -295 51 -38 7 -92 17 -118 20 -27 4 -59 8 -70 11 -12 2 -74 13 -137 25 -63
12 -137 27 -165 33 -48 12 -53 11 -110 -18 -33 -17 -62 -34 -65 -37 -3 -4 -38
-23 -79 -44 l-74 -37 -66 15 c-36 9 -91 18 -121 22 -30 3 -68 10 -85 15 -16 5
-77 16 -135 25 -58 9 -127 22 -155 27 -27 6 -70 14 -95 18 -25 5 -54 11 -65
13 -11 3 -45 8 -75 12 -30 4 -80 13 -110 20 -30 7 -80 16 -110 20 -30 3 -71
10 -90 15 -44 11 -133 28 -185 36 -22 3 -68 12 -103 20 -82 18 -121 18 -128
-1z m1823 -921 c-3 -3 -12 -4 -19 -1 -8 3 -5 6 6 6 11 1 17 -2 13 -5z m1830
-171 c-3 -10 -5 -4 -5 12 0 17 2 24 5 18 2 -7 2 -21 0 -30z m-1267 -13 c-8 -5
-31 -9 -50 -8 l-35 1 40 7 c59 11 61 11 45 0z m166 -26 c27 -9 63 -22 79 -30
l30 -14 -32 0 c-18 0 -33 5 -33 10 0 6 -7 10 -16 10 -9 0 -30 6 -47 14 -18 8
-43 17 -57 19 l-25 4 26 2 c14 0 48 -6 75 -15z m1124 -8 c0 -3 -4 -8 -10 -11
-5 -3 -10 -1 -10 4 0 6 5 11 10 11 6 0 10 -2 10 -4z m-1262 -51 c149 -30 292
-104 392 -205 60 -59 110 -117 110 -125 0 -3 12 -24 27 -48 80 -122 112 -302
82 -449 -6 -29 -28 -89 -49 -133 -53 -111 -135 -192 -250 -248 -84 -41 -86
-41 -205 -43 -66 0 -89 1 -52 3 47 3 70 8 73 18 4 10 11 12 23 5 34 -18 191
76 174 103 -3 6 -1 7 4 4 14 -9 93 71 93 93 0 10 4 20 8 22 13 5 52 78 52 97
0 9 6 23 12 29 17 17 14 238 -3 289 l-13 38 -7 -35 -6 -35 -2 31 c-1 23 -7 33
-21 37 -13 3 -20 14 -20 28 0 22 1 22 14 4 13 -18 14 -18 20 3 4 11 3 29 -2
39 -6 10 -15 29 -21 43 -34 76 -149 212 -174 206 -6 -1 -9 -1 -5 1 13 8 -16
43 -35 43 -10 0 -20 7 -23 15 -4 8 -12 15 -20 15 -8 0 -14 4 -14 9 0 9 -55 41
-72 41 -17 0 -7 -18 15 -25 20 -6 20 -8 3 -12 -10 -3 -21 0 -25 5 -4 6 -29 15
-56 20 l-50 10 47 1 c38 1 46 4 42 16 -4 11 -21 15 -55 15 -35 0 -51 4 -55 15
-4 8 -12 15 -19 15 -7 0 -18 -7 -25 -15 -14 -17 -77 -20 -100 -5 -11 7 -5 10
25 11 28 1 32 3 15 6 -14 3 -29 9 -34 14 -6 5 -32 9 -59 9 -40 0 -48 -3 -43
-15 3 -10 -1 -15 -14 -15 -34 0 -31 18 5 36 78 37 172 43 293 19z m320 -21
c28 -14 59 -34 70 -44 11 -11 23 -16 26 -12 4 3 4 -2 0 -12 -5 -13 -4 -17 4
-12 6 4 27 -7 47 -25 34 -32 46 -59 24 -59 -6 0 -8 7 -5 16 3 8 2 12 -4 9 -6
-3 -15 -3 -21 1 -8 4 -7 9 2 15 10 6 8 9 -7 9 -12 0 -28 7 -35 16 -8 9 -49 39
-91 67 -43 27 -78 51 -78 53 0 9 22 2 68 -22z m-686 -41 c-6 -3 -10 -8 -7 -13
3 -4 -6 -7 -20 -6 -14 0 -25 2 -25 3 0 7 56 30 60 26 3 -3 -1 -8 -8 -10z m135
11 c-3 -3 -12 -4 -19 -1 -8 3 -5 6 6 6 11 1 17 -2 13 -5z m-212 -54 c-3 -5
-11 -10 -16 -10 -6 0 -7 5 -4 10 3 6 11 10 16 10 6 0 7 -4 4 -10z m-10 -19
c17 -7 15 -9 -13 -13 -22 -3 -32 -1 -32 9 0 14 15 16 45 4z m111 3 c18 -5 21
-14 23 -60 l2 -54 -36 0 -35 0 0 60 c0 62 3 66 46 54z m84 -20 c0 -8 -4 -12
-10 -9 -5 3 -10 10 -10 16 0 5 5 9 10 9 6 0 10 -7 10 -16z m260 2 c0 -3 -4 -8
-10 -11 -5 -3 -10 -1 -10 4 0 6 5 11 10 11 6 0 10 -2 10 -4z m572 -105 c7 -14
30 -51 50 -81 90 -139 139 -321 123 -465 -5 -52 -10 -65 -21 -61 -11 4 -12 2
-4 -13 11 -22 3 -75 -15 -106 -7 -11 -15 -32 -19 -47 -4 -17 -13 -28 -23 -28
-9 0 -14 -3 -10 -6 18 -18 -79 -133 -130 -153 -17 -7 -34 -19 -37 -28 -3 -8
-10 -11 -16 -8 -5 3 -10 2 -10 -3 0 -8 -86 -46 -127 -55 -13 -3 -23 -1 -23 4
0 5 11 9 24 9 14 0 27 3 30 8 2 4 35 23 73 42 37 19 76 45 86 58 10 12 24 19
30 15 6 -4 8 -1 5 9 -4 9 6 26 23 42 16 15 29 34 29 42 0 8 9 19 20 26 13 9
20 24 21 48 0 19 3 29 6 21 7 -18 32 47 44 119 13 69 5 280 -10 289 -6 4 -11
18 -11 32 0 20 -3 45 -9 79 -1 3 -6 -2 -11 -10 -7 -12 -10 -8 -10 15 0 23 3
27 10 15 7 -11 10 -12 10 -2 0 7 -6 19 -12 26 -16 16 -45 55 -61 81 -43 74
-54 90 -69 107 -10 10 -18 26 -18 35 0 14 4 13 24 -6 14 -13 31 -35 38 -50z
m-402 17 c-1 -8 -6 -6 -15 6 -20 26 -19 42 0 22 8 -8 15 -21 15 -28z m39 6 c3
-16 1 -17 -13 -5 -19 16 -21 34 -3 29 6 -3 14 -13 16 -24z m-812 -56 c-3 -8
-6 -5 -6 6 -1 11 2 17 5 13 3 -3 4 -12 1 -19z m33 -18 c0 -13 -10 -24 -25 -30
-14 -5 -25 -14 -25 -20 0 -5 -7 -10 -16 -10 -10 0 -2 13 23 40 21 22 39 40 41
40 1 0 2 -9 2 -20z m820 -5 c0 -8 -4 -15 -9 -15 -5 0 -11 7 -15 15 -3 9 0 15
9 15 8 0 15 -7 15 -15z m-467 -112 c10 -15 -14 -18 -28 -4 -6 6 -35 12 -65 14
l-55 3 62 2 c60 2 61 2 58 29 -1 15 0 34 4 43 3 8 8 -4 11 -30 3 -25 9 -51 13
-57z m164 75 c-3 -8 -6 -5 -6 6 -1 11 2 17 5 13 3 -3 4 -12 1 -19z m370 0 c-3
-8 -6 -5 -6 6 -1 11 2 17 5 13 3 -3 4 -12 1 -19z m30 -15 c-3 -10 -5 -4 -5 12
0 17 2 24 5 18 2 -7 2 -21 0 -30z m-322 -21 c7 -19 8 -18 -40 -25 -22 -3 -34
-3 -27 0 6 2 10 9 6 14 -3 5 -3 18 1 29 5 16 10 17 30 8 13 -6 27 -17 30 -26z
m315 -12 c0 -5 -5 -10 -11 -10 -5 0 -7 5 -4 10 3 6 8 10 11 10 2 0 4 -4 4 -10z
m75 -50 c3 -5 1 -10 -4 -10 -6 0 -11 5 -11 10 0 6 2 10 4 10 3 0 8 -4 11 -10z
m442 -22 c-3 -8 -6 -5 -6 6 -1 11 2 17 5 13 3 -3 4 -12 1 -19z m-836 -69 c11
-11 19 -27 19 -36 -1 -15 -4 -14 -20 5 -11 13 -24 21 -30 17 -6 -4 -10 8 -10
32 1 32 2 35 11 19 6 -10 20 -27 30 -37z m36 9 c-3 -7 -5 -2 -5 12 0 14 2 19
5 13 2 -7 2 -19 0 -25z m-33 -98 c5 -26 4 -31 -3 -20 -6 8 -11 26 -12 40 l-1
25 -8 -25 -8 -25 -1 26 c-2 57 21 43 33 -21z m1433 -2 c-2 -13 -4 -3 -4 22 0
25 2 35 4 23 2 -13 2 -33 0 -45z m-1401 -112 c1 -72 -2 -93 -11 -90 -23 9 -28
106 -9 148 10 20 18 36 19 36 0 0 1 -42 1 -94z m1541 27 c-2 -16 -4 -5 -4 22
0 28 2 40 4 28 2 -13 2 -35 0 -50z m-1580 25 c-3 -8 -6 -5 -6 6 -1 11 2 17 5
13 3 -3 4 -12 1 -19z m-2851 -72 c3 -19 3 -40 -2 -47 -4 -8 -3 -10 4 -5 7 4
14 -4 17 -21 7 -31 25 -110 31 -133 21 -86 22 -90 8 -90 -8 0 -14 4 -14 9 0 4
-11 6 -25 3 -13 -2 -57 4 -97 14 -40 10 -84 17 -97 15 -13 -2 -21 1 -17 7 3 6
-2 8 -13 5 -22 -6 -111 21 -153 45 -19 11 -24 18 -15 24 7 5 0 8 -18 8 -41 0
-195 79 -195 100 0 3 6 7 13 8 6 1 35 6 62 11 82 16 137 23 183 24 23 1 42 4
42 8 0 7 49 16 135 25 28 3 66 9 85 14 56 13 59 12 66 -24z m2954 19 c0 -8 -4
-15 -10 -15 -5 0 -10 7 -10 15 0 8 5 15 10 15 6 0 10 -7 10 -15z m-43 -57 c-3
-7 -5 -2 -5 12 0 14 2 19 5 13 2 -7 2 -19 0 -25z m412 -25 c0 -40 -2 -44 -10
-25 -8 21 -3 72 7 72 2 0 4 -21 3 -47z m-349 -48 c0 -8 -4 -15 -10 -15 -5 0
-10 7 -10 15 0 8 5 15 10 15 6 0 10 -7 10 -15z m20 -35 c0 -11 -4 -20 -10 -20
-5 0 -10 -15 -10 -32 0 -18 -3 -50 -6 -70 -6 -33 -10 -38 -33 -37 -22 1 -22 2
-5 6 16 3 23 14 28 45 4 26 3 44 -4 48 -16 10 -8 66 8 63 6 -2 12 2 12 7 0 6
5 10 10 10 6 0 10 -9 10 -20z m-55 -60 c7 -22 6 -23 -9 -8 -9 9 -16 27 -16 40
1 18 3 20 9 8 5 -8 12 -26 16 -40z m-48 8 c-3 -7 -5 -2 -5 12 0 14 2 19 5 13
2 -7 2 -19 0 -25z m1340 16 c-3 -3 -12 -4 -19 -1 -8 3 -5 6 6 6 11 1 17 -2 13
-5z m-999 -49 c-6 -14 -13 -23 -16 -21 -7 7 9 46 18 46 5 0 4 -11 -2 -25z m42
4 c0 -6 -4 -8 -9 -5 -5 3 -14 -8 -20 -24 -5 -17 -13 -30 -16 -30 -3 0 2 16 10
36 8 20 15 38 15 41 0 2 5 1 10 -2 6 -3 10 -11 10 -16z m-363 -46 c-4 -17 -4
-17 -12 0 -4 9 -4 25 0 35 8 16 8 16 12 0 3 -10 3 -26 0 -35z m780 -5 c-3 -8
-6 -5 -6 6 -1 11 2 17 5 13 3 -3 4 -12 1 -19z m-960 -45 c-3 -10 -5 -4 -5 12
0 17 2 24 5 18 2 -7 2 -21 0 -30z m483 27 c8 -5 11 -12 7 -17 -5 -4 -11 -3
-15 3 -4 6 -14 14 -22 17 -13 5 -13 5 0 6 8 0 22 -3 30 -9z m-35 -21 c12 -19
-5 -23 -22 -6 -16 16 -16 17 -1 17 9 0 20 -5 23 -11z m-3756 -29 c47 -17 91
-36 99 -43 8 -6 23 -11 34 -9 10 2 18 -2 18 -9 0 -7 3 -9 7 -6 3 4 11 3 17 -2
19 -14 59 -22 146 -27 47 -3 137 -10 200 -15 63 -6 128 -11 143 -12 21 -2 29
-8 33 -27 3 -14 9 -32 14 -41 5 -9 11 -34 15 -55 3 -22 10 -55 15 -74 5 -19
14 -57 22 -85 7 -27 11 -58 9 -68 -1 -10 2 -24 6 -30 12 -16 11 -47 -2 -48 -5
0 -17 -6 -25 -14 -8 -7 -26 -16 -39 -20 -12 -4 -39 -18 -58 -31 -20 -13 -43
-24 -51 -24 -9 0 -25 -8 -36 -19 -17 -15 -97 -59 -165 -91 -24 -11 -24 -28 1
-35 13 -3 32 -10 43 -15 71 -30 209 -79 250 -89 17 -4 49 -18 72 -29 23 -12
51 -22 61 -22 25 0 89 -26 97 -40 3 -5 18 -10 33 -10 59 0 52 -17 -10 -24
-130 -13 -367 -26 -493 -27 -183 -1 -168 -4 -161 34 11 61 27 289 21 308 -4
11 -10 17 -15 14 -5 -3 -18 3 -30 15 -11 11 -23 20 -26 20 -14 0 -92 75 -87
83 3 6 1 7 -6 3 -6 -4 -25 4 -41 18 -25 21 -27 25 -12 29 9 3 3 5 -15 6 -19 1
-41 10 -55 24 -13 13 -43 39 -68 58 -25 18 -47 36 -50 39 -3 3 -20 17 -39 30
-23 16 -44 46 -67 97 -39 84 -38 84 -21 80 6 -1 11 4 10 11 -2 6 1 12 7 12 5
0 6 7 3 17 -4 11 -3 14 5 9 8 -5 14 3 18 23 4 17 13 36 20 42 8 6 14 18 14 25
0 8 5 14 10 14 6 0 10 3 9 8 -3 17 14 52 25 52 6 0 49 -14 95 -30z m3501 20
c-19 -13 -30 -13 -30 0 0 6 10 10 23 10 18 0 19 -2 7 -10z m47 4 c-3 -3 -12
-4 -19 -1 -8 3 -5 6 6 6 11 1 17 -2 13 -5z m170 -26 c-3 -8 -6 -5 -6 6 -1 11
2 17 5 13 3 -3 4 -12 1 -19z m-299 -5 c-10 -2 -28 -2 -40 0 -13 2 -5 4 17 4
22 1 32 -1 23 -4z m235 -30 c-18 -7 -16 -23 2 -23 8 0 15 -4 15 -10 0 -16 -27
-11 -34 6 -7 19 1 34 17 33 9 0 9 -2 0 -6z m527 -27 c0 -3 -4 -8 -10 -11 -5
-3 -10 -1 -10 4 0 6 5 11 10 11 6 0 10 -2 10 -4z m-580 -27 c0 -11 -4 -17 -10
-14 -5 3 -10 13 -10 21 0 8 5 14 10 14 6 0 10 -9 10 -21z m-366 -17 c2 -4 -11
-6 -30 -4 -19 2 -34 6 -34 8 0 8 59 4 64 -4z m2553 -48 c-3 -3 -12 -4 -19 -1
-8 3 -5 6 6 6 11 1 17 -2 13 -5z m-2329 -51 c-10 -2 -26 -2 -35 0 -10 3 -2 5
17 5 19 0 27 -2 18 -5z m235 -4 c-11 -11 -131 -14 -142 -4 -3 4 18 5 47 4 28
-1 55 0 59 4 3 4 15 7 27 7 15 0 17 -3 9 -11z m-4308 -1168 c-3 -6 -11 -11
-16 -11 -5 0 -4 6 3 14 14 16 24 13 13 -3z m78 -8 c-7 -2 -19 -2 -25 0 -7 3
-2 5 12 5 14 0 19 -2 13 -5z"/>
<path d="M5472 2500 c0 -14 2 -19 5 -12 2 6 2 18 0 25 -3 6 -5 1 -5 -13z"/>
<path d="M5471 2424 c0 -11 3 -14 6 -6 3 7 2 16 -1 19 -3 4 -6 -2 -5 -13z"/>
<path d="M5421 2234 c0 -11 3 -14 6 -6 3 7 2 16 -1 19 -3 4 -6 -2 -5 -13z"/>
<path d="M5310 2070 c0 -5 5 -10 10 -10 6 0 10 5 10 10 0 6 -4 10 -10 10 -5 0
-10 -4 -10 -10z"/>
<path d="M4783 2475 c0 -22 2 -30 4 -17 2 12 2 30 0 40 -3 9 -5 -1 -4 -23z"/>
<path d="M1468 2023 c7 -3 16 -2 19 1 4 3 -2 6 -13 5 -11 0 -14 -3 -6 -6z"/>
<path d="M2483 3113 c9 -2 23 -2 30 0 6 3 -1 5 -18 5 -16 0 -22 -2 -12 -5z"/>
<path d="M2438 3103 c7 -3 16 -2 19 1 4 3 -2 6 -13 5 -11 0 -14 -3 -6 -6z"/>
<path d="M2358 3093 c7 -3 16 -2 19 1 4 3 -2 6 -13 5 -11 0 -14 -3 -6 -6z"/>
<path d="M2173 3073 c9 -2 25 -2 35 0 9 3 1 5 -18 5 -19 0 -27 -2 -17 -5z"/>
<path d="M4303 2793 c9 -2 23 -2 30 0 6 3 -1 5 -18 5 -16 0 -22 -2 -12 -5z"/>
<path d="M4198 2778 c8 -8 20 -8 44 -1 l33 11 -44 1 c-34 1 -42 -2 -33 -11z"/>
<path d="M4298 2773 c7 -3 16 -2 19 1 4 3 -2 6 -13 5 -11 0 -14 -3 -6 -6z"/>
<path d="M4350 2771 c21 -7 16 -9 -28 -15 -29 -5 -51 -10 -49 -13 3 -2 41 2
86 9 84 13 90 28 11 27 -36 -1 -40 -2 -20 -8z"/>
<path d="M4236 2762 c-2 -4 -1 -14 3 -21 6 -9 11 -10 15 -2 4 6 1 11 -6 12 -7
1 -2 5 12 9 23 7 23 8 3 9 -12 1 -24 -3 -27 -7z"/>
<path d="M2565 2481 c-18 -8 -17 -9 10 -15 70 -16 79 -26 98 -116 27 -124 35
-174 31 -182 -5 -8 14 -107 26 -133 5 -11 11 -42 12 -70 2 -27 7 -53 12 -57 5
-3 -6 -10 -25 -15 -19 -5 -35 -17 -37 -26 -6 -28 97 -23 163 9 95 44 144 125
145 236 0 66 -26 178 -42 178 -4 0 -8 6 -8 13 0 7 -8 20 -17 29 -10 9 -36 35
-58 58 -58 60 -134 94 -220 97 -38 1 -79 -1 -90 -6z"/>
<path d="M748 2427 c-3 -19 -2 -25 4 -19 6 6 8 18 6 28 -3 14 -5 12 -10 -9z"/>
<path d="M2456 2412 c-3 -5 1 -9 9 -9 8 0 12 4 9 9 -3 4 -7 8 -9 8 -2 0 -6 -4
-9 -8z"/>
<path d="M2411 2335 c-1 -11 -4 -31 -6 -45 l-6 -25 11 25 c6 13 9 33 7 45 -4
19 -4 19 -6 0z"/>
<path d="M601 1954 c0 -11 3 -14 6 -6 3 7 2 16 -1 19 -3 4 -6 -2 -5 -13z"/>
<path d="M870 1080 c0 -5 5 -10 10 -10 6 0 10 5 10 10 0 6 -4 10 -10 10 -5 0
-10 -4 -10 -10z"/>
<path d="M7158 513 c7 -3 16 -2 19 1 4 3 -2 6 -13 5 -11 0 -14 -3 -6 -6z"/>
<path d="M6718 433 c7 -3 16 -2 19 1 4 3 -2 6 -13 5 -11 0 -14 -3 -6 -6z"/>
</g>
</svg>
